<svg xmlns="http://www.w3.org/2000/svg" xmlns:xlink="http://www.w3.org/1999/xlink" viewBox="0 0 32 32" width="16" height="16" version="1.1">
<!--
<defs>
<g id="barre">
<path d="m5 2a3 3 0 0 0 -3 3 3 3 0 0 0 0.8809 2.1191l0.705-0.705c-0.3619-0.362-0.5859-0.8618-0.5859-1.4141 0-1.1046 0.8954-2 2-2h22c0.55228 0 1.0521 0.22401 1.4141 0.58594l0.705-0.705a3 3 0 0 0 -2.119 -0.8809h-22z" fill-opacity=".6"/>
<path d="m5 3c-1.1046 0-2 0.8954-2 2s0.8954 2 2 2h22c1.105 0 2-0.8954 2-2s-0.895-2-2-2z" fill-opacity=".3"/>
<path d="m27 8a3 3 0 0 0 3 -3 3 3 0 0 0 -0.881 -2.1191l-0.705 0.705c0.362 0.362 0.586 0.8618 0.586 1.4141 0 1.1046-0.895 2-2 2h-22c-0.5523 0-1.0521-0.224-1.4141-0.5859l-0.705 0.705a3 3 0 0 0 2.1191 0.8809h22z" fill-opacity=".9" fill="#fff"/>
</g>
</defs>
<use xlink:href="#barre" y="2" x="0"/>
<use xlink:href="#barre" y="11" x="0"/>
<use xlink:href="#barre" y="20" x="0"/>
-->
	<defs>
		<g id="barre">
			<path fill="black" fill-opacity=".6" d="m6 2a4 4 0 0 0 -4 4 4 4 0 0 0 1.1738 2.8262l0.7071-0.7071a3 3 0 0 1 -0.8809 -2.1191 3 3 0 0 1 3 -3h20a3 3 0 0 1 2.119 0.8809l0.707-0.7071a4 4 0 0 0 -2.826 -1.1738h-20z"/>
			<path fill="white" fill-opacity=".4" d="m26 10a4 4 0 0 0 4 -4 4 4 0 0 0 -1.174 -2.8262l-0.707 0.7071a3 3 0 0 1 0.881 2.1191 3 3 0 0 1 -3 3h-20a3 3 0 0 1 -2.1191 -0.8809l-0.7071 0.7071a4 4 0 0 0 2.8262 1.1738h20z"/>
			<path fill="rgb(50%,50%,50%)" fill-opacity=".3" d="m6 3a3 3 0 0 0 -3 3 3 3 0 0 0 3 3h20a3 3 0 0 0 3 -3 3 3 0 0 0 -3 -3h-20z"/>
		</g>
	</defs>
	<use xlink:href="#barre" y="0" x="0"/>
	<use xlink:href="#barre" y="10" x="0"/>
	<use xlink:href="#barre" y="20" x="0"/>
</svg>
