<svg xmlns="http://www.w3.org/2000/svg" version="1.1" viewBox="0 0 32 32" height="0">
	<defs>
		<symbol id="details" viewBox="-4 -4 40 40">
			<path d="m 14,1 0,4.9511719 -4.6464844,0 -2.6210937,-4.5390625 -3.4648438,2 L 5.8984375,7.9667969 0.79101562,19.011719 6.953125,32 25.287109,32 31.199219,18.992188 30.814453,18.160156 26.101562,7.96875 l 2.63086,-4.5566406 -3.464844,-2 -2.621094,4.5390625 -4.646484,0 L 18,1 Z m -4.6113281,8.9511719 13.2226561,0 4.189453,9.0546871 L 22.712891,28 9.4824219,28 5.2089844,18.988281 Z M 16,11.5 10,16 l 0,6 6,4.5 6,-4.5 0,-6 z m 0,5 2,1.5 0,2 -2,1.5 -2,-1.5 0,-2 z" fill-rule="evenodd"/>
		</symbol>
		<symbol id="supprimer" viewBox="-4 -4 40 40">
			<path d="m12 0v2h-12v4h32v-4h-12v-2h-8zm-10 8v18.828l5.1719 5.172h17.656l5.172-5.172v-18.828h-4v17.172l-2.828 2.828h-14.344l-2.828-2.828v-17.172h-4zm8 0v18h4v-18h-4zm8 0v18h4v-18h-4z" fill-rule="evenodd"/>
		</symbol>
		<symbol id="modifier" viewBox="-4 -4 40 40">
			<path d="m15.172 0-15.172 15.172v16.828h16.828l15.172-15.172v-9.6561l-7.172-7.1719zm2.828 4h5.172l4.828 4.8281v5.1719h-5.172l-4.828-4.8281zm2 2v2l4 4h2v-2l-4-4zm-6 0.82812v2.3438l-10 10v-2.3438zm2 6l3.172 3.172-10.586 10.586-3.1719-3.172zm6.828 5.172h2.3438l-10 10h-2.3438z" fill-rule="evenodd" display="inline"/>
		</symbol>
	</defs>
</svg>
