<?xml version="1.0" encoding="UTF-8" standalone="no"?>
<!-- Created with Inkscape (http://www.inkscape.org/) -->
<svg xmlns:rdf="http://www.w3.org/1999/02/22-rdf-syntax-ns#" xmlns="http://www.w3.org/2000/svg" height="32" width="32" version="1.1" xmlns:cc="http://creativecommons.org/ns#" xmlns:dc="http://purl.org/dc/elements/1.1/" viewBox="0 0 31.999999 31.999998">
 <metadata>
  <rdf:RDF>
   <cc:Work rdf:about="">
    <dc:format>image/svg+xml</dc:format>
    <dc:type rdf:resource="http://purl.org/dc/dcmitype/StillImage"/>
    <dc:title/>
   </cc:Work>
  </rdf:RDF>
 </metadata>
 <g transform="translate(0 -1020.4)">
  <g fill-rule="evenodd">
   <path style="color-rendering:auto;color:#000000;isolation:auto;mix-blend-mode:normal;shape-rendering:auto;solid-color:#000000;image-rendering:auto" d="m16 1048.4-16 4 4-16 12 12z" fill="#f9eab5"/>
   <path d="m16 1020.4-12 16v6l6 6h6l16-12h-8l-8-8v-8z" fill="#d8c300"/>
   <path d="m32 1028.4v8h-8l-8-8v-8h8l8 8z" fill="#f9eab5"/>
  </g>
  <g fill-rule="evenodd">
   <path d="m28 1028.4v4h-4l-4-4v-4h4l4 4z"/>
   <path d="m0.0000035258 1052.4 2-8 6 6-8 2z"/>
   <path d="m4 1036.4 12-16v8l-12 14 0.000001-6z" fill-opacity=".34615" fill="#fff"/>
   <path d="m24 1036.4-14 12h6l16-12h-8z" fill-opacity=".34615"/>
  </g>
  <path style="color-rendering:auto;text-decoration-color:#000000;color:#000000;isolation:auto;mix-blend-mode:normal;shape-rendering:auto;solid-color:#000000;block-progression:tb;text-decoration-line:none;text-decoration-style:solid;image-rendering:auto;white-space:normal;text-indent:0;text-transform:none" d="m16.501 1021.4h7.0859l7.4141 7.4141v7.0859l-15.438 11.578-14.188 3.5469 3.5469-14.188z" stroke="#000" stroke-width="2" fill="none"/>
 </g>
</svg>
