<svg
	 xmlns="http://www.w3.org/2000/svg"
	 height="32"
	 width="32"
	 version="1.1"
	 viewBox="0 0 32 32">
	<g>
		<path
			  fill-rule="evenodd"
			  d="m16.002 0-12.002 15.998-2 8.002l-2 8 8-2 8.002-2 16-12v-8l-8-8zm1.5 2h5.6699l6.8301 6.8281v5.6719h-5.6719l-6.8281-6.8281zm-2 1.998v3.7051l-10.205 11.358 0.5468-2.186zm4.498 0.002v4l4 4h4v-4l-4-4zm-3.461 5.5371 5.922 5.9239-12.424 11.162-4.66-4.66zm7.76 6.9629h3.7031l-12.877 9.6562-2.1836 0.54688zm-20.131 7.082 4.25 4.25-4.0684 1.018-1.1997-1.1997z"
			  />
	</g>
</svg>
