<?xml version="1.0" encoding="UTF-8" standalone="no"?>
<svg xmlns:rdf="http://www.w3.org/1999/02/22-rdf-syntax-ns#" xmlns="http://www.w3.org/2000/svg" height="600" width="120" version="1.1" xmlns:cc="http://creativecommons.org/ns#" xmlns:dc="http://purl.org/dc/elements/1.1/" viewBox="0 0 120 600.00001">
	<defs>
		<clipPath id="clipPath4771" clipPathUnits="userSpaceOnUse">
			<rect style="color-rendering:auto;color:#000000;isolation:auto;mix-blend-mode:normal;shape-rendering:auto;solid-color:#000000;image-rendering:auto" height="600" width="120" y="452.36" x="0" fill="none"/>
		</clipPath>
	</defs>
	<g clip-path="url(#clipPath4771)" transform="translate(0 -452.36)">
		<rect style="color-rendering:auto;color:#000000;isolation:auto;mix-blend-mode:normal;shape-rendering:auto;solid-color:#000000;image-rendering:auto" fill-rule="evenodd" transform="translate(0 452.36)" height="771.17" width="176.69" y="-76" x="-42" fill="#f60"/>
		<path fill="#fff" d="m-24.935 855.77c-44.76 29.109-57.45 89.003-28.34 133.76 5.7364 8.8207 12.627 16.387 20.398 22.633 3.7767-6.6829 6.5897-11.819 8.5833-14.855-3.2622-2.9821-5.1746-5.3041-8.1-9.095-32.937-42.642-14.779-82.832 0.46819-98.629 17.371-18.011 37.275-18.621 45.646-15.654-2.9398-7.5051-2.5063-13.006-0.64415-18.588 5.3026-0.93252 11.701 2.0087 25.409 1.8638 15.583-0.15669 34.324 9.4934 37.509 19.055-22.283 21.048-32.174 20.493-36.219 19.385-6.1959 8.6445-4.353 14.419-3.7192 16.609 2.8897 0.17668 8.5505 1.829 12.399 0.31821 4.7682-1.8647 12.189-5.9286 13.808-3.0854 1.1614-0.99969 26.769-19.609 31.473-22.438 4.3688 4.7498 3.8311 8.8088 3.8311 8.8088s-18.813 10.467-32.64 21.17c0.51257 0.50066 1.1953 5.4192-5.2342 10.19-3.8431 2.8446-5.7517 1.9438-7.4847 0.87102-9.8972 7.5293-16.596 14.229-21.366 18.654 2.8733 3.379-4.5109 9.2019-4.5109 9.2019-2.4271 1.7943-5.0075 2.049-7.204 1.1916-12.669 12.221-22.469 26.905-23.61 30.148 16.979 17.884 49.271 22.749 71.701 10.086 19.501-11 30.213-35.824 22.025-51-5.6115-10.397-18.127-14.521-29.935-8.5811-10.894 5.4887-13.503 15.093-10.332 20.478 1.289 2.1809 3.1792 3.5398 5.3806 3.9627 2.0414 0.3975 4.3558-0.0007 6.7272-1.2841 3.199-1.7353 3.7369 0.043 1.0223 1.5493-2.9878 1.6843-5.7194 2.3251-8.114 2.1139-3.2661-0.2914-5.8983-2.2166-7.5914-5.3283-4.296-7.888 0.32975-17.222 9.4176-22.658 18.378-11.003 33.541-3.5827 39.99 7.793 10.841 19.101-0.04987 46.9-23.902 61.006-18.932 11.19-51.41 20.452-85.871-0.064-1.9478 3.7254-5.146 13.31-5.6086 15.782 30.337 17.047 68.885 17.008 100.07-3.2707 44.755-29.14 57.435-89.03 28.325-133.79-29.108-44.76-88.991-57.45-133.76-28.34m37.41 93.977c-4.0338-1.2728-13.214 5.215-17.815 4.4405-3.5336-0.5918 0.73442-14.61-7.8379-6.3037-7.8929 7.6491-6.1857 20.686 2.0173 31.31 0 0 14.204-17.288 24.95-26.894-0.82619-1.116-0.93961-1.7323-1.3147-2.5524m34.562-26.704c-3.0236-4.2735-15.736-0.56356-18.656-1.8705-2.9202-1.307-2.5955-4.2785-4.4411-8.3546-4.1188 9.407-6.4272 11.052-16 15.322 0.027523 3.447 3.1924 4.71-2.5266 13.159 6.4242 1.5442 11.42-0.61197 14.22-3.1374 7.0525-6.355 8.6389 0.83701 8.6389 0.83701 5.019-4.8169 14.048-12.155 18.765-15.956"/>
		<path d="m59.999 471.8c-29.508 0-53.434 23.925-53.434 53.434 0 5.815 0.91262 11.397 2.6311 16.632 3.7633-1.9582 6.6142-3.4904 8.4526-4.2962-0.61284-2.3646-0.79922-4.0165-1.0124-6.6543-2.4113-29.68 18.111-42.829 29.934-45.554 13.475-3.1106 22.88 2.6043 25.864 6.501 0.89932-4.3629 2.7576-6.7808 5.3021-8.8057 2.7377 1.1657 4.8158 4.4561 11.21 8.5192 7.267 4.6227 13.042 14.74 11.637 20.13-16.665 3.0374-21.081-0.19985-22.621-1.9316-5.4752 2.1382-6.3612 5.3686-6.7275 6.5743 1.2855 0.95252 3.4104 3.4237 5.6484 3.8832 2.7709 0.57277 7.4336 0.92591 7.327 2.731 0.83928-0.11323 18.31-1.0192 21.342-0.91262 0.5929 3.517-0.87919 5.2354-0.87919 5.2354s-11.87-0.81917-21.501-0.0266c0.08662 0.3864-1.079 2.8708-5.4953 3.1438-2.6376 0.15995-3.2504-0.83246-3.7301-1.8516-6.854 0.50625-11.976 1.5919-15.52 2.2048 0.31306 2.4312-4.8625 2.9041-4.8625 2.9041-1.6651 0.1-2.9373-0.55946-3.6967-1.6186-9.5517 1.845-18.517 5.695-20.022 6.854 2.4778 13.402 15.973 25.385 30.18 26.277 12.349 0.77926 24.792-7.4936 25.571-16.992 0.53286-6.5076-4.0232-12.189-11.284-12.995-6.7008-0.73937-10.804 2.9242-10.957 6.3745-0.05989 1.3988 0.40636 2.5978 1.2988 3.4571 0.82598 0.79923 2.0183 1.3121 3.5036 1.432 2.0049 0.15993 1.7185 1.1457 0.0068 1.0258-1.8917-0.11991-3.3503-0.64609-4.3961-1.4654-1.4254-1.1191-2.0648-2.8042-1.9117-4.7559 0.3864-4.9489 5.342-7.8798 11.19-7.66 11.83 0.43976 16.619 8.4461 16.179 15.66-0.7327 12.116-14.154 21.714-29.455 21.062-12.143-0.51961-29.98-6.0147-39.765-25.903-2.0249 1.1391-6.3944 4.6159-7.3536 5.6218 8.9189 17.038 26.79 28.635 47.346 28.635 29.515 0 53.434-23.925 53.434-53.434 0-29.508-23.919-53.434-53.434-53.434m-10.984 54.811c-1.4854-1.8051-7.6934-1.5654-9.5916-3.3104-1.4588-1.3389 4.7425-6.5477-1.7319-5.2821-5.9615 1.1657-9.0987 7.72-8.4991 15.114 0 0 11.79-3.7301 19.662-4.9423-0.04652-0.76598 0.08662-1.0857 0.15994-1.5787m24.058-1.9582c-0.11323-2.891-7.1205-5.0023-8.0797-6.4877-0.95915-1.4854 0.08662-2.7643 0.45971-5.2088-4.7426 3.1172-6.3078 3.1839-12.03 2.278-1.0258 1.6053 0.05989 3.144-5.1355 5.3353 2.511 2.651 5.4752 3.1573 7.5333 2.8309 5.1822-0.81932 3.7502 2.9907 3.7502 2.9907 3.7766-0.71942 10.171-1.3988 13.501-1.7384" clip-path="none"/>
		<g>
			<g fill="#fff">
				<path d="m-0.27643 801.49h21.751q0.80751 0 1.2243-0.36468 0.41678-0.36468 0.67726-1.3024h0.83356v9.7422h-0.83356q-0.26048-0.93775-0.67726-1.3024-0.41678-0.36468-1.2243-0.36468h-27.69q-1.3285 0-1.7974 0.31258-0.46887 0.31258-0.70331 1.3545h-0.83355q-0.026049-1.3024-0.026049-1.6671 0-3.3342 0.75541-5.4963 1.5369-4.3762 5.7307-7.4238 2.162-1.5629 7.0592-3.8031l4.4022-2.0057q3.0998-1.4327 4.4543-2.9435 1.3806-1.5369 1.3806-3.6208 0-2.3704-1.6411-3.5947-1.615-1.2503-4.7148-1.2503-3.777 0-7.0331 1.8494-3.1519 1.7713-3.1519 3.6468 0 0.44283 0.41678 1.6411l-0.57307 0.59912-6.9289-7.4759 0.62517-0.57307q0.98985 0.46887 1.4587 0.46887 0.41678 0 0.72936-0.18234t1.2764-1.0419q5.7307-4.9753 14.144-4.9753 6.0433 0 9.664 2.9695 3.6729 3.0216 3.6729 8.049 0 4.9492-3.5166 8.1793-2.3183 2.1099-6.2256 3.8552l-4.0115 1.7974q-0.62517 0.31258-2.8393 1.1982-2.7091 1.094-3.8031 1.7974-1.094 0.67726-2.0318 1.9276z"/>
				<path d="m45.309 771.72q7.0071 0 11.644 4.5585 5.2097 5.1316 5.2097 14.092 0 2.8132-0.78146 5.7046t-2.136 5.0274q-2.3704 3.751-6.2517 5.7046-3.4384 1.7192-7.6583 1.7192-7.0071 0-11.618-4.5846-2.2141-2.2141-3.4384-5.0013-1.7713-4.1157-1.7713-8.8305 0-6.3558 2.9174-10.992 2.2923-3.6728 6.2517-5.6786 3.2821-1.6671 7.6322-1.7192zm0 6.0433q-4.1417 0-6.5903 3.6728-2.2662 3.4124-2.2662 8.4658t2.2662 8.4658q2.4486 3.6728 6.6163 3.6728 4.1938 0 6.6163-3.6728 2.2662-3.4124 2.2662-8.3095 0-5.2879-2.2662-8.6221-2.4225-3.6208-6.6424-3.6728z"/>
				<path d="m71.201 785.19v-9.4556h0.83356q0.28654 0.9638 0.54702 1.2503 0.26048 0.28654 0.80751 0.28654 0.26049 0 0.72936-0.1042l2.2402-0.57307v-1.5369q0-0.78146-0.36468-1.1982-0.36468-0.41677-1.3024-0.67726v-0.83356h10.862v0.83356q-0.93775 0.26049-1.3024 0.67726-0.36468 0.39073-0.36468 1.1982v30.112q0 0.8075 0.36468 1.2243 0.36468 0.41678 1.3024 0.67726v0.83356h-10.862v-0.83356q0.93775-0.26048 1.3024-0.67726 0.36468-0.41678 0.36468-1.2243v-22.506l-2.4486 0.59911q-0.8596 0.20839-1.2503 0.59912-0.36468 0.39073-0.62517 1.3285h-0.83356z"/>
				<path d="m121.63 788.89q7.9448 2.0578 7.9448 8.3616 0 4.2459-3.3603 7.3978-4.1157 3.8812-13.702 3.8812-6.5382 0-10.784-1.9015-2.7091-1.2243-4.5064-3.777-1.7974-2.6049-1.7974-5.5744 0-6.3298 7.9448-8.3876-6.408-2.5267-6.408-7.6062 0-3.5947 2.9174-6.1214 3.9594-3.4384 12.608-3.4384 6.0433 0 10.107 1.8234 2.3704 1.068 3.9073 3.0737t1.5369 4.6627q0 5.0795-6.408 7.6062zm-9.1952-11.592q-3.6728 0-5.8349 1.1722-2.136 1.1461-2.136 3.1258t2.162 3.1258 5.8609 1.1461 5.8609-1.1461q2.1881-1.1461 2.1881-3.0737 0-2.0578-2.136-3.204-2.1099-1.1461-5.9651-1.1461zm0 14.509q-4.4543 0-7.0852 1.7192-1.9536 1.3024-1.9536 3.6208 0 2.4746 2.4225 3.9073 2.4486 1.4066 6.6684 1.4066 4.5846 0 7.1634-1.7192 1.9536-1.3285 1.9536-3.5426 0-2.5528-2.3965-3.9594t-6.7726-1.4327z"/>
			</g>
			<g>
				<path d="m17.08 634.98v-21.617q0-0.56101-0.2618-0.86021-0.2618-0.29921-0.93501-0.48621v-0.59841h7.9663v0.59841q-0.67321 0.1683-0.93501 0.48621-0.2618 0.2992-0.2618 0.86021v21.617q0 0.57971 0.2618 0.89761 0.2805 0.29921 0.93501 0.46751v0.5984h-7.9663v-0.5984q0.67321-0.187 0.93501-0.48621 0.2618-0.2992 0.2618-0.87891z"/>
				<path d="m32.784 619.46v15.521q0 0.57971 0.2618 0.87891 0.2618 0.29921 0.93501 0.48621v0.5984h-7.4988v-0.5984q0.67321-0.187 0.93501-0.48621 0.2618-0.2992 0.2618-0.87891v-21.617q0-0.56101-0.2618-0.86021-0.2618-0.29921-0.93501-0.48621v-0.59841h8.6769v0.59841q-0.80411 0.2057-0.80411 0.86021 0 0.44881 0.52361 0.99112l14.081 14.642v-15.147q0-0.56101-0.2618-0.86021-0.2618-0.29921-0.93501-0.48621v-0.59841h7.4988v0.59841q-0.67321 0.187-0.93501 0.48621-0.2618 0.2992-0.2618 0.86021v21.617q0 0.57971 0.2618 0.87891 0.2618 0.29921 0.93501 0.48621v0.5984h-8.0411v-0.5984q0.78541-0.1683 0.78541-0.80411 0-0.37401-0.91631-1.309l-14.305-14.78z"/>
				<path d="m71.209 615.63v19.355q0 0.57971 0.2618 0.87891 0.2618 0.29921 0.93501 0.48621v0.5984h-7.9663v-0.5984q0.67321-0.187 0.93501-0.48621 0.2618-0.2992 0.2618-0.87891v-19.355h-7.9289q-0.56101 0-0.86021 0.2618-0.2992 0.2431-0.48621 0.91631h-0.59841v-6.6012h0.59841q0.2057 0.69191 0.48621 0.95371 0.2992 0.2618 0.86021 0.2618h21.412q0.57971 0 0.87891-0.2618t0.48621-0.95371h0.59841v6.6012h-0.59841q-0.187-0.67321-0.48621-0.91631-0.2992-0.2618-0.87891-0.2618h-7.9102z"/>
				<path d="m88.409 625.75v6.9939h16.419q0.56101 0 0.86021-0.2618t0.48621-0.93501h0.5984v6.6012h-0.5984q-0.18701-0.67321-0.48621-0.93501-0.2992-0.26181-0.86021-0.26181h-23.188v-0.5984q0.67321-0.187 0.93501-0.48621 0.2618-0.2992 0.2618-0.87891v-21.599q0-0.57971-0.2618-0.87891-0.2618-0.29921-0.93501-0.48621v-0.59841h22.739q0.56101 0 0.86021-0.2618 0.29921-0.2805 0.48621-0.95371h0.59841v6.6012h-0.59841q-0.187-0.65451-0.48621-0.91631-0.2992-0.2618-0.86021-0.2618h-15.97v6.0589h10.36q0.56101 0 0.86021-0.2618t0.48621-0.93501h0.59841v6.4516h-0.59841q-0.187-0.65451-0.48621-0.91631-0.2992-0.28051-0.86021-0.28051h-10.36zm10.94-21.804v0.50491q-0.72931 0.0187-1.1033 0.5236l-2.6554 3.2351q-0.1122 0.13091-0.1122 0.29921 0 0.2992 0.3927 0.2992 0.0187 0 0.0748 0v0.50491h-4.058v-0.50491q0.44881 0 0.63581-0.1309t0.3553-0.54231l1.2342-3.0481q0.0748-0.16831 0.0748-0.28051 0-0.2992-0.52361-0.3553v-0.50491h5.6849z"/>
				<path d="m38.556 658.4h-6.302q-0.57971 0-0.87891 0.26181-0.2805 0.2618-0.46751 0.93501h-0.59841v-5.9467h0.59841q0.187 0.69191 0.46751 0.95372 0.2992 0.2431 0.87891 0.2431h12.118v0.59841q-0.67321 0.187-0.95371 0.4862-0.2618 0.29921-0.2618 0.87891v5.2361q0 0.57971 0.2618 0.87891 0.2618 0.29921 0.95371 0.48621v0.4675q-7.2744 4.1515-14.1 4.1515-6.1898 0-10.098-2.9359-4.9182-3.7026-4.9182-10.285 0-6.1337 4.3759-9.7615 4.1515-3.4408 11.033-3.4408 2.1879 0 4.1141 0.41141 1.9448 0.3927 4.4133 1.3464 1.2716 0.5049 1.8139 0.5049 0.3927 0 0.91631-0.4301l0.52361 0.2805-2.992 6.115-0.54231-0.28051q-0.0187-0.6171-0.1683-0.87891-0.1496-0.2805-0.67321-0.67321-1.1407-0.86021-3.3473-1.4586-2.2066-0.61711-4.1702-0.61711-4.0018 0-6.6386 2.244-2.9733 2.5432-2.9733 6.7134 0 4.0392 2.8985 6.5264 2.6554 2.2814 6.9939 2.2814 2.1131 0 4.1702-0.48621 2.057-0.4862 3.553-1.3277v-3.4782z"/>
				<path d="m55.418 657.17v8.4712q0 0.561 0.2618 0.87891 0.2805 0.2992 0.93501 0.4675v0.59841h-7.9663v-0.59841q0.67321-0.187 0.93501-0.4862 0.2618-0.29921 0.2618-0.86021v-21.617q0-0.5797-0.2618-0.87891-0.2618-0.2992-0.93501-0.4862v-0.59841h15.97q2.9172 0 4.619 0.3366 1.7204 0.33661 2.992 1.1781 1.4773 0.97241 2.2066 2.6367 0.69191 1.6082 0.69191 3.4408 0 6.2459-6.9378 7.3118l4.9556 7.05q1.309 1.8513 1.9074 2.3936 0.61711 0.52361 1.496 0.57971v0.59841h-9.2379v-0.59841q0.95371-0.1496 0.95371-0.67321 0-0.3366-0.87891-1.6269l-5.1613-7.5175h-6.8069zm0-4.2076h8.6021q1.9074 0 2.6928-0.11221 0.78541-0.1122 1.4399-0.4675 1.4212-0.76671 1.4212-2.7676t-1.4212-2.7676q-0.67321-0.37401-1.4399-0.46751-0.74801-0.1122-2.6928-0.1122h-8.6021v6.6947z"/>
				<path d="m98.274 661.08h-11.594l-1.7204 3.5904q-0.3553 0.74801-0.3553 1.1781 0 0.82281 1.2529 1.1407v0.59841h-8.4525v-0.59841q0.74801-0.1496 1.1407-0.5236 0.3927-0.37401 0.89761-1.4586l9.3875-19.617q0.44881-0.93501 0.44881-1.496 0-0.86021-1.0846-1.2342v-0.59841h9.0509v0.59841q-1.1033 0.3179-1.1033 1.1033 0 0.54231 0.3553 1.2342l9.7241 19.673q0.6171 1.2529 1.0846 1.7204 0.46751 0.44881 1.2529 0.59841v0.59841h-9.3875v-0.59841q1.2342-0.2057 1.2342-1.1594 0-0.39271-0.374-1.1594l-1.7578-3.5904zm-1.6082-3.497-4.1328-9.0883-4.1889 9.0883h8.3216z"/>
				<path d="m27.459 676.91v19.355q0 0.57971 0.2618 0.87891t0.93501 0.48621v0.5984h-7.9663v-0.5984q0.67321-0.18701 0.93501-0.48621t0.2618-0.87891v-19.355h-7.9289q-0.56101 0-0.86021 0.2618-0.2992 0.2431-0.48621 0.91631h-0.59841v-6.6012h0.59841q0.2057 0.69191 0.48621 0.95371 0.2992 0.2618 0.86021 0.2618h21.412q0.57971 0 0.87891-0.2618t0.48621-0.95371h0.59841v6.6012h-0.59841q-0.187-0.67321-0.48621-0.91631-0.2992-0.2618-0.87891-0.2618h-7.9102z"/>
				<path d="m39.086 696.26v-21.617q0-0.56101-0.2618-0.86021-0.2618-0.29921-0.93501-0.48621v-0.59841h7.9663v0.59841q-0.67321 0.1683-0.93501 0.48621-0.2618 0.2992-0.2618 0.86021v21.617q0 0.57971 0.2618 0.89761 0.2805 0.2992 0.93501 0.46751v0.5984h-7.9663v-0.5984q0.67321-0.18701 0.93501-0.48621t0.2618-0.87891z"/>
				<path d="m62.513 672.25q6.676 0 10.584 3.6091 4.1328 3.7774 4.1328 9.7615 0 3.6652-1.9822 6.8443-3.8709 6.2085-12.697 6.2085-6.6199 0-10.528-3.6092-2.0944-1.9261-3.179-4.619-0.95371-2.3749-0.95371-4.993 0-3.8335 1.9635-7.0126 3.7587-6.0776 12.66-6.1898zm0.0187 4.3198q-3.6465 0-6.0776 2.1692-2.8798 2.5619-2.8798 6.7134t2.8798 6.7134q2.431 2.1692 6.115 2.1692 3.6839 0 6.0963-2.1692 1.4399-1.2903 2.2066-3.1603 0.67321-1.6643 0.67321-3.4408 0-4.3385-2.8798-6.8256-2.4497-2.1318-6.1337-2.1692z"/>
				<path d="m85.51 680.74v15.521q0 0.57971 0.2618 0.87891t0.93501 0.48621v0.5984h-7.4988v-0.5984q0.67321-0.18701 0.93501-0.48621t0.2618-0.87891v-21.617q0-0.56101-0.2618-0.86021-0.2618-0.29921-0.93501-0.48621v-0.59841h8.6769v0.59841q-0.80411 0.2057-0.80411 0.86021 0 0.44881 0.52361 0.99112l14.081 14.642v-15.147q0-0.56101-0.2618-0.86021-0.2618-0.29921-0.93501-0.48621v-0.59841h7.4988v0.59841q-0.67321 0.187-0.93501 0.48621-0.2618 0.2992-0.2618 0.86021v21.617q0 0.57971 0.2618 0.87891t0.93501 0.48621v0.5984h-8.0411v-0.5984q0.78541-0.16831 0.78541-0.80411 0-0.37401-0.91631-1.309l-14.298-14.78z"/>
			</g>
			<g>
				<path d="m32.382 738.08-5.5748 14.08q-0.48244 1.0721-0.48244 1.358 0 0.82192 1.3222 1.1614v0.57177h-7.844v-0.57177q1.1972-0.23229 1.1972-1.215 0-0.26801-0.5003-1.5902l-6.986-17.99q-0.51817-1.3401-0.947-1.8047-0.41096-0.48243-1.215-0.64324v-0.57178h8.4694v0.57178q-1.1257 0.25015-1.1257 1.0542 0 0.41096 0.28589 1.1793l4.8243 12.901 5.2174-12.972q0.33949-0.83979 0.33949-1.1078 0-0.82193-1.1972-1.0542v-0.57178h8.8625v0.57178q-1.215 0.32162-1.215 1.1614 0 0.28589 0.30376 1.0721l4.9673 12.954 4.8065-12.74q0.37523-0.947 0.37523-1.4116 0-0.78619-1.2865-1.0363v-0.57178h8.3801v0.57178q-0.8934 0.25015-1.2329 0.64324-0.33949 0.3931-0.8934 1.8047l-6.9864 17.993q-0.5003 1.2865-0.5003 1.7153 0 0.87553 1.2686 1.09v0.57177h-7.9512v-0.57177q1.2508-0.19655 1.2508-1.1972 0-0.33949-0.55391-1.6081l-5.3783-13.794z"/>
				<path d="m61.614 744.54v6.6826h15.688q0.53604 0 0.82193-0.25015t0.46457-0.8934h0.57177v6.3074h-0.57177q-0.17868-0.64325-0.46457-0.8934t-0.82193-0.25015h-22.156v-0.57177q0.64325-0.17868 0.8934-0.46457t0.25015-0.83979v-20.637q0-0.55391-0.25015-0.8398-0.25015-0.28588-0.8934-0.46456v-0.57178h21.727q0.53604 0 0.82193-0.25015 0.28589-0.26802 0.46457-0.91126h0.57177v6.3074h-0.57177q-0.17868-0.62538-0.46457-0.87553t-0.82193-0.25015h-15.259v5.7892h9.8988q0.53604 0 0.82192-0.25015 0.28589-0.25015 0.46457-0.8934h0.57178v6.1644h-0.57178q-0.17868-0.62537-0.46457-0.87553-0.28589-0.26801-0.82192-0.26801h-9.8988z"/>
				<path d="m104.68 742.47q4.1096 1.5545 4.1096 5.7535 0 3.3413-2.3943 5.2353-1.215 0.94701-2.8231 1.3758-1.5902 0.41096-3.9488 0.41096h-16.671v-0.57177q0.64325-0.17868 0.8934-0.46457t0.25015-0.83979v-20.637q0-0.55391-0.25015-0.8398-0.25015-0.28588-0.8934-0.46456v-0.57178h16.51q2.3764 0 3.8237 0.35736t2.5372 1.215q2.162 1.6975 2.162 4.8958 0 3.5736-3.3056 5.146zm-15.259-1.9119h9.3449q2.1263 0 2.9661-0.62538 0.947-0.71471 0.947-2.2156 0-1.5366-0.8934-2.1799-0.8934-0.66112-3.0197-0.66112h-9.3449v5.682zm0 10.667h9.0412q2.5194 0 3.6272-0.69685 1.2686-0.80406 1.2686-2.6266 0-1.8047-1.2686-2.6266-1.09-0.69685-3.6272-0.69685h-9.0412v6.6469z"/>
				<path d="m20.608 819.77v-56.445q0-1.4648-0.68359-2.2461-0.68359-0.78125-2.4414-1.2695v-1.5625h20.801v1.5625q-1.7578 0.43945-2.4414 1.2695-0.68359 0.78125-0.68359 2.2461v56.445q0 1.5137 0.68359 2.3438 0.73242 0.78125 2.4414 1.2207v1.5625h-20.801v-1.5625q1.7578-0.48828 2.4414-1.2695 0.68359-0.78125 0.68359-2.2949z"/>
				<path d="m53.616 819.77v-56.445q0-1.4648-0.68359-2.2461-0.68359-0.78125-2.4414-1.2695v-1.5625h20.801v1.5625q-1.7578 0.43945-2.4414 1.2695-0.68359 0.78125-0.68359 2.2461v56.445q0 1.5137 0.68359 2.3438 0.73242 0.78125 2.4414 1.2207v1.5625h-20.801v-1.5625q1.7578-0.48828 2.4414-1.2695 0.68359-0.78125 0.68359-2.2949z"/>
				<path d="m86.624 819.77v-56.445q0-1.4648-0.68359-2.2461-0.68359-0.78125-2.4414-1.2695v-1.5625h20.801v1.5625q-1.7578 0.43945-2.4414 1.2695-0.68359 0.78125-0.68359 2.2461v56.445q0 1.5137 0.68359 2.3438 0.73242 0.78125 2.4414 1.2207v1.5625h-20.801v-1.5625q1.7578-0.48828 2.4414-1.2695 0.68359-0.78125 0.68359-2.2949z"/>
			</g>
		</g>
		<g transform="translate(0 440.36)">
			<g fill="#fff" transform="translate(.60607 -2)">
				<path d="m31.791 607.11-4.7527-7.6305 0.41901 7.1484q0.0155 0.26444 0.14292 0.39392t0.43952 0.19679l0.016 0.27297-3.4206 0.2005-0.016-0.27297q0.30209-0.1033 0.41351-0.24679 0.11142-0.14348 0.09592-0.40792l-0.57801-9.861q-0.015-0.25591-0.14242-0.3854-0.12742-0.12948-0.43951-0.19678l-0.016-0.27297 4.4869-0.26301 0.016 0.27297q-0.39492 0.12586-0.37342 0.49267 0.01 0.1706 0.14242 0.38539l3.5163 5.6658 2.8789-5.9379q0.19026-0.40489 0.17976-0.58403-0.0205-0.34974-0.44951-0.36739l-0.016-0.27297 4.4016-0.258 0.016 0.27297q-0.30209 0.1033-0.41351 0.24678-0.11142 0.14349-0.09642 0.3994l0.57801 9.861q0.0155 0.26444 0.14292 0.39392 0.12742 0.12949 0.43951 0.19679l0.016 0.27297-3.6339 0.213-0.016-0.27296q0.29406-0.0943 0.40548-0.23776 0.11945-0.15252 0.10395-0.41696l-0.41901-7.1484-4.0676 8.1475z"/>
				<path d="m50.267 595.84 0.98713 4.97q0.33792 1.7014-0.17443 2.6308-0.82982 1.4803-3.8219 2.0746-2.0031 0.39785-3.3567 0.0307-0.97663-0.26776-1.4666-1.0242-0.45154-0.69439-0.67627-1.8258l-0.98713-4.9701q-0.0516-0.25981-0.19558-0.37061-0.14397-0.11079-0.46401-0.14306l-0.04661-0.23467 3.3273-0.66086 0.04661 0.23467q-0.29346 0.1454-0.3825 0.31119-0.0907 0.1574-0.0391 0.41722l0.89724 4.5175q0.15648 0.78784 0.37381 1.1803 0.22571 0.39076 0.62261 0.59071 0.79546 0.40828 2.0945 0.15026 1.2991-0.25802 1.8781-0.9393 0.28198-0.33478 0.33285-0.78048 0.05087-0.44569-0.10561-1.2335l-0.89724-4.5175q-0.0516-0.25981-0.19558-0.37061-0.13559-0.11246-0.46401-0.14306l-0.04661-0.23467 3.1262-0.62091 0.04661 0.23467q-0.28508 0.14374-0.37412 0.30953-0.0907 0.1574-0.0391 0.41722z"/>
				<path d="m56.482 601.26 5.1205-1.5764q0.26133-0.0804 0.3568-0.23501 0.09547-0.15457 0.09227-0.48439l0.2205-0.0679 0.83473 2.7113-0.2205 0.0679q-0.17218-0.26886-0.34621-0.34045-0.16587-0.0741-0.4272 0.006l-7.8318 2.4112-0.0704-0.22867q0.2632-0.1615 0.3348-0.33553 0.07976-0.17655 0.0018-0.42971l-2.3031-7.4807q-0.07794-0.25316-0.2325-0.34863-0.15456-0.0955-0.47622-0.0948l-0.0704-0.22866 3.234-0.99565 0.0704 0.22867q-0.26886 0.17218-0.34045 0.34621-0.07411 0.16587 0.0038 0.41903l2.0491 6.6558z"/>
				<path d="m65.946 591.4 2.6474 6.4413q0.1007 0.24501 0.26657 0.33389 0.16262 0.081 0.48288 0.051l0.0877 0.21339-3.1298 1.2863-0.09095-0.22129q0.24739-0.18483 0.30281-0.36466 0.06333-0.18308-0.03737-0.42809l-2.6474-6.4413-2.6081 1.0719q-0.25291 0.10395-0.33854 0.27772-0.08098 0.16262-0.04308 0.47963l-0.21339 0.0877-1.0784-2.6239 0.2213-0.091q0.18482 0.24738 0.36 0.31396 0.17983 0.0554 0.43274-0.0485l7.3344-3.0144q0.25291-0.10395 0.33389-0.26657 0.08888-0.16587 0.05098-0.48287l0.21339-0.0877 1.0784 2.6239-0.21339 0.0877q-0.19597-0.25204-0.37581-0.30747-0.17518-0.0666-0.42809 0.0374l-2.6081 1.0719z"/>
				<path d="m71.773 587.75 3.4443 7.0286q0.11656 0.23787 0.28791 0.31567 0.16759 0.0701 0.48518 0.0192l0.10152 0.20717-3.0386 1.489-0.10528-0.21485q0.23472-0.20066 0.27822-0.38375 0.05117-0.18684-0.06539-0.42471l-3.4443-7.0286q-0.11656-0.23787-0.28415-0.30799-0.16759-0.0701-0.48518-0.0192l-0.10528-0.21485 3.0386-1.489 0.10528 0.21485q-0.23863 0.21209-0.28213 0.39518-0.04726 0.17541 0.0693 0.41328z"/>
				<path d="m82.895 591.2-6.0791-3.3284 2.7981 4.6389q0.13682 0.22683 0.31428 0.28943 0.17305 0.0553 0.48501-0.0231l0.11916 0.19755-2.7219 1.6418-0.12358-0.20487q0.21637-0.22033 0.24378-0.4065 0.03472-0.19059-0.10209-0.41742l-4.0427-6.7023q-0.13682-0.22682-0.30987-0.28211-0.17746-0.0626-0.48501 0.0231l-0.12358-0.20487 3.4609-2.0876 0.12358 0.20488q-0.27769 0.31718-0.09233 0.62449 0.18095 0.3 0.69012 0.58163l4.1202 2.2149 0.0082-4.6352q0.0025-0.78988-0.1431-1.0313-0.18095-0.3-0.58803-0.16422l-0.12358-0.20487 3.3731-2.0346 0.12358 0.20487q-0.21927 0.23206-0.24668 0.41823-0.03182 0.17886 0.105 0.40569l4.0427 6.7023q0.13682 0.22682 0.31428 0.28942 0.17747 0.0626 0.48501-0.0231l0.11916 0.19756-2.8975 1.7477-0.12358-0.20488q0.21637-0.22032 0.24378-0.4065 0.03472-0.19058-0.10209-0.41741l-2.7981-4.6389-0.06705 7.0358z"/>
				<path d="m90.224 581.76 1.4325 1.8411 4.7949-3.7309q0.20906-0.16267 0.2435-0.34105 0.04118-0.18362-0.08553-0.48561l0.18883-0.14693 1.7421 2.239-0.18883 0.14693q-0.24436-0.18881-0.43771-0.20076-0.18811-0.005-0.39717 0.15746l-7.0339 5.4731-0.14693-0.18883q0.18881-0.24435 0.19402-0.43246 0.01195-0.19336-0.15072-0.40242l-4.8066-6.1774q-0.16267-0.20906-0.34104-0.2435-0.17837-0.0344-0.47888 0.0803l-0.14693-0.18883 6.8248-5.3104q0.2158-0.16792 0.25024-0.3463 0.04118-0.18362-0.08029-0.47887l0.18208-0.14168 1.7421 2.239-0.18208 0.14168q-0.26159-0.19705-0.4497-0.20226-0.18137-0.0104-0.39717 0.15747l-4.5858 3.5682 1.2909 1.659 2.8459-2.2144q0.20906-0.16267 0.2435-0.34104 0.04118-0.18362-0.07354-0.48412l0.18208-0.14168 1.7002 2.185-0.18208 0.14168q-0.25635-0.19031-0.44446-0.19552-0.18661-0.0172-0.40242 0.15072l-2.8459 2.2144zm-2.0734-9.8307 0.14168 0.18209q-0.25776 0.21139-0.25621 0.49168l-0.04458 1.9186q-0.0037 0.0787 0.0435 0.13938 0.08396 0.1079 0.22558-0.002 0.0067-0.005 0.02698-0.021l0.14168 0.18208-1.4634 1.1387-0.14168-0.18209q0.16185-0.12594 0.19256-0.22562 0.03071-0.0997-0.02404-0.29527l-0.41024-1.4456q-0.02025-0.0817-0.05174-0.12215-0.08396-0.1079-0.28853 0.0188l-0.14168-0.18209 2.0501-1.5952z"/>
				<path d="m99.429 578.47-5.4521-5.6159q-0.18452-0.19006-0.36558-0.20483-0.18107-0.0148-0.46725 0.13207l-0.16666-0.17166 4.028-3.9105q1.2568-1.2202 2.2838-1.6099 1.4463-0.54662 2.8819 0.0366 1.0031 0.40763 1.9257 1.3579 1.7083 1.7596 1.5408 3.6848-0.0792 0.86295-0.54442 1.6718-0.465 0.79681-1.4214 1.7253l-4.028 3.9105-0.16666-0.17166q0.16101-0.2635 0.14566-0.45106-0.0092-0.19351-0.19374-0.38356zm1.0419-2.2144 1.7534-1.7023q1.2078-1.1726 1.2178-2.2541 0.0107-1.1299-1.019-2.1905t-2.1594-1.0834q-0.56177-0.0144-1.1037 0.26164-0.54785 0.26987-1.1855 0.88889l-1.7534 1.7023 4.2498 4.3775z"/>
				<path d="m103.68 562.87 5.8753 5.1716q0.19883 0.17502 0.38691 0.1812 0.18167 0.00054 0.45547-0.16826l0.17318 0.15244-2.2358 2.54-0.17959-0.15808q0.13988-0.2753 0.10988-0.46108-0.0243-0.19219-0.22319-0.36721l-5.8753-5.1716q-0.19884-0.17502-0.3805-0.17556-0.18167-0.00054-0.45547 0.16827l-0.1796-0.15809 2.2358-2.54 0.17959 0.15809q-0.13911 0.28736-0.10911 0.47314 0.0236 0.18013 0.22242 0.35515z"/>
				<path d="m114.21 559.73-2.6432 3.5184 0.53582 1.0224q0.19282 0.36929 0.36362 0.4976 0.32793 0.24635 0.74521-0.12417l0.1913 0.14371-2.1145 2.8147-0.1913-0.1437q0.15404-0.29041 0.13028-0.50063-0.0186-0.21706-0.23191-0.64447l-3.5577-7.0438q-0.20305-0.39835-0.44217-0.57799-0.28011-0.21042-0.72465 0.0541l-0.19129-0.1437 2.2326-2.9719 0.19129 0.1437q-0.13197 0.48867 0.1823 0.72476 0.22545 0.16936 0.68169 0.24492l7.6621 1.2245q0.63054 0.0996 0.86982 0.0656 0.23246-0.0391 0.49754-0.27817l0.18446 0.13857-2.3455 3.1222-0.18446-0.13857q0.25845-0.50053-0.0831-0.75715-0.21179-0.1591-0.65437-0.22439l-1.1039-0.16664zm-1.4883-0.25239-3.3919-0.59227 1.5596 3.0312 1.8322-2.439z"/>
			</g>
			<g style="color-rendering:auto;color:#000000;isolation:auto;mix-blend-mode:normal;shape-rendering:auto;solid-color:#000000;image-rendering:auto" fill-rule="evenodd" transform="translate(0,-2)" fill="#f60">
				<path style="color-rendering:auto;color:#000000;isolation:auto;mix-blend-mode:normal;shape-rendering:auto;solid-color:#000000;image-rendering:auto" d="m20.291 593.42 0.39659-9.87q0.01029-0.25614-0.10375-0.39755t-0.41798-0.23914l0.01098-0.27322 3.6372 0.14615-0.01098 0.27322q-0.31046 0.0645-0.43582 0.20483-0.12502 0.13181-0.13531 0.38795l-0.39659 9.87q-0.01063 0.26468 0.10306 0.41463 0.12258 0.14176 0.41832 0.23061l-0.01098 0.27321-3.6372-0.14614 0.01098-0.27322q0.3108-0.073 0.43582-0.20484 0.12502-0.1318 0.13566-0.39648z"/>
				<path style="color-rendering:auto;color:#000000;isolation:auto;mix-blend-mode:normal;shape-rendering:auto;solid-color:#000000;image-rendering:auto" d="m27.556 588.17 0.29876 5.4264q0.01456 0.26449 0.142 0.40296 0.13597 0.138 0.43928 0.20688l0.01268 0.23036-3.1739 0.17475-0.01315-0.2389q0.29439-0.0932 0.40585-0.24485 0.12-0.15209 0.10543-0.41658l-0.43029-7.8153q-0.01456-0.2645-0.14153-0.39443-0.12696-0.12994-0.43928-0.20688l-0.01315-0.23889 3.6688-0.202 0.01315 0.2389q-0.37024 0.11452-0.35709 0.35342 0.01127 0.20477 0.29933 0.46276l5.3992 4.8032-0.28983-5.2642q-0.01456-0.2645-0.14153-0.39443-0.12743-0.13847-0.43928-0.20688l-0.01315-0.23889 3.1739-0.17475 0.01315 0.2389q-0.30246 0.10223-0.41392 0.25385-0.11193 0.14309-0.09737 0.40758l0.43029 7.8153q0.01456 0.26449 0.142 0.40296 0.12696 0.12994 0.43928 0.20688l0.01268 0.23036-3.4213 0.18837-0.01268-0.23036q0.37118-0.0975 0.35803-0.33636-0.0066-0.11945-0.11601-0.24179-0.10943-0.12234-0.49698-0.47755l-5.3433-4.7207z"/>
				<path style="color-rendering:auto;color:#000000;isolation:auto;mix-blend-mode:normal;shape-rendering:auto;solid-color:#000000;image-rendering:auto" d="m42.131 585.09 1.1924 6.8613q0.04536 0.26098 0.18809 0.38361 0.14127 0.11422 0.46044 0.15415l0.0395 0.22731-3.3338 0.57939-0.04097-0.23572q0.28149-0.12698 0.37448-0.29058 0.10141-0.16507 0.05605-0.42605l-1.1924-6.8613-2.7782 0.48282q-0.2694 0.0468-0.39057 0.19798-0.11422 0.14127-0.14573 0.45897l-0.22731 0.0395-0.48575-2.795 0.23572-0.041q0.12698 0.28149 0.28362 0.38436 0.1636 0.093 0.433 0.0462l7.8126-1.3578q0.2694-0.0468 0.38362-0.1881 0.12264-0.14273 0.15415-0.46044l0.22731-0.0395 0.48575 2.795-0.22731 0.0395q-0.13686-0.28844-0.30046-0.38143-0.15665-0.10287-0.42605-0.0561l-2.7782 0.48282z"/>
				<path style="color-rendering:auto;color:#000000;isolation:auto;mix-blend-mode:normal;shape-rendering:auto;solid-color:#000000;image-rendering:auto" d="m49.783 587.23 0.64621 2.2415 5.8377-1.683q0.25453-0.0734 0.35276-0.2262 0.10644-0.15518 0.10096-0.48264l0.22989-0.0663 0.78587 2.7259-0.22989 0.0663q-0.15674-0.26607-0.33183-0.34898-0.17272-0.0747-0.42724-0.001l-8.5636 2.4689-0.06628-0.2299q0.26606-0.15674 0.34077-0.32946 0.08292-0.17508 0.0095-0.42961l-2.1682-7.5208q-0.07338-0.25453-0.2262-0.35276-0.15282-0.0982-0.47444-0.10333l-0.06628-0.22989 8.309-2.3955q0.26274-0.0758 0.36097-0.22857 0.10644-0.15519 0.10333-0.47444l0.22168-0.0639 0.78587 2.7259-0.22168 0.0639q-0.16969-0.28012-0.3424-0.35483-0.16451-0.0771-0.42724-0.001l-5.5832 1.6096 0.5823 2.0198 3.4648-0.99891q0.25453-0.0734 0.35276-0.2262 0.10644-0.15519 0.11154-0.47681l0.22168-0.0639 0.76694 2.6602-0.22168 0.0639q-0.16732-0.27191-0.34004-0.34661-0.16687-0.0853-0.42961-0.01l-3.4648 0.99891zm1.7264-9.8976 0.06391 0.22169q-0.31784 0.10052-0.42051 0.36134l-0.75402 1.7648q-0.03269 0.0717-0.01139 0.14557 0.03787 0.13137 0.21029 0.0817 0.0082-0.002 0.03284-0.009l0.06391 0.22168-1.7817 0.51366-0.06391-0.22168q0.19705-0.0568 0.26259-0.13796 0.06554-0.0811 0.08736-0.28308l0.15606-1.4945q0.01154-0.0834-0.0027-0.13263-0.03787-0.13137-0.27487-0.0897l-0.06391-0.22168 2.496-0.7196z"/>
				<path style="color-rendering:auto;color:#000000;isolation:auto;mix-blend-mode:normal;shape-rendering:auto;solid-color:#000000;image-rendering:auto" d="m65.497 581.97-2.0055 0.85194q-0.25167 0.10691-0.3386 0.27381-0.07906 0.16356-0.03744 0.4801l-0.21235 0.0902-0.98891-2.328 0.21235-0.0902q0.19558 0.24185 0.36819 0.29851 0.18047 0.0533 0.43214-0.0536l4.1919-1.7807 0.09689 0.22808q-0.24186 0.19558-0.29635 0.39512-0.04663 0.1962 0.0703 0.47147l0.78846 1.8561q0.10357 0.2438 0.27047 0.33073 0.17477 0.0836 0.48344 0.0453l0.07684 0.18089q-1.9502 2.4902-4.4826 3.566-2.1864 0.92877-3.9768 0.47313-0.97197-0.25556-1.7744-0.89879-0.94789-0.76711-1.4256-1.8918-0.6615-1.5572-0.2165-3.176 0.69916-2.5066 3.6248-3.7494 1.282-0.54457 3.1662-0.67656 0.74632-0.0571 0.85642-0.10386 0.1337-0.0568 0.26113-0.25947l0.23219 0.0221-0.10387 2.6622-0.22884-0.0142q-0.01336-0.0315-0.02005-0.0472-0.12361-0.29099-0.8359-0.35049-1.3214-0.11642-2.5561 0.4081-1.4235 0.60471-2.0051 1.7709-0.61204 1.2255-0.02404 2.6097 0.55125 1.2977 1.755 1.7054 1.234 0.41348 2.8541-0.27475 1.5415-0.65482 2.3593-1.68l-0.5713-1.3449z"/>
				<path style="color-rendering:auto;color:#000000;isolation:auto;mix-blend-mode:normal;shape-rendering:auto;solid-color:#000000;image-rendering:auto" d="m70.912 578.94 1.5344 2.6464q0.13287 0.22916 0.30922 0.29482 0.17207 0.0583 0.48534-0.0147l0.11572 0.1996-2.9273 1.6973-0.12001-0.20698q0.22016-0.21654 0.25078-0.40222 0.03802-0.18996-0.09485-0.41912l-3.926-6.7713q-0.13287-0.22916-0.30494-0.28743-0.17207-0.0583-0.48534 0.0147l-0.12001-0.20698 5.4259-3.1459q1.0571-0.61291 1.6758-0.82347 0.61442-0.21796 1.2134-0.18993 1.2331 0.0654 2.0003 1.3886 0.5829 1.0054 0.3585 1.896-0.22129 0.87898-1.3027 1.8418l2.8358 1.2795q0.78021 0.35758 1.1601 0.43362 0.38302 0.0644 0.74257-0.0651l0.11572 0.19959-3.4744 2.0144-0.11572-0.19959q0.32439-0.32637 0.19153-0.55553-0.09429-0.16263-0.52372-0.35812l-3.0317-1.4128-1.9885 1.1529zm-0.87006-1.5006 2.9865-1.7316q0.68009-0.39431 0.91963-0.73074 0.3426-0.46533-0.000284-1.0567-0.30431-0.52485-0.74958-0.54325-0.43788-0.0227-1.2584 0.45306l-2.9865 1.7316 1.0886 1.8776z"/>
				<path style="color-rendering:auto;color:#000000;isolation:auto;mix-blend-mode:normal;shape-rendering:auto;solid-color:#000000;image-rendering:auto" d="m85.507 571.11-3.5079 2.6571 0.2344 1.1302q0.08398 0.40805 0.21296 0.57834 0.24766 0.32694 0.75066 0.0853l0.14447 0.19072-2.8063 2.1257-0.14447-0.19072q0.22788-0.23693 0.26277-0.44559 0.04171-0.21382-0.04598-0.68338l-1.4862-7.7501q-0.08583-0.43881-0.26642-0.67721-0.21154-0.27927-0.71165-0.147l-0.14446-0.19072 2.963-2.2444 0.14447 0.19071q-0.26112 0.43363-0.02378 0.74695 0.17026 0.22478 0.5882 0.42274l7.0311 3.2819q0.57893 0.26897 0.81834 0.30201 0.23426 0.0262 0.5548-0.13082l0.13931 0.18391-3.1128 2.3579-0.13931-0.18391q0.38599-0.41029 0.12801-0.75086-0.15994-0.21116-0.56757-0.3955l-1.0156-0.46342zm-1.3618-0.65147-3.0987-1.5011 0.66707 3.343 2.4317-1.8419z"/>
				<path style="color-rendering:auto;color:#000000;isolation:auto;mix-blend-mode:normal;shape-rendering:auto;solid-color:#000000;image-rendering:auto" d="m89.175 560.61 4.8049 5.041q0.18276 0.19174 0.36958 0.21435 0.18092 0.0164 0.46844-0.12777l0.15918 0.167-2.4494 2.3346-0.16508-0.17319q0.16342-0.26201 0.14979-0.4497-0.0074-0.19358-0.19021-0.38532l-4.8049-5.041-2.0411 1.9455q-0.19793 0.18866-0.21464 0.38166-0.01643 0.18093 0.13396 0.46255l-0.167 0.15918-1.9573-2.0535 0.17319-0.16508q0.26201 0.16343 0.44941 0.16188 0.18769-0.0136 0.38562-0.20229l5.7399-5.4711q0.19793-0.18865 0.21436-0.36958 0.02261-0.18682-0.12778-0.46844l0.167-0.15918 1.9573 2.0535-0.167 0.15918q-0.27409-0.16371-0.46178-0.15008-0.1874 0.002-0.38533 0.19021l-2.0411 1.9455z"/>
				<path style="color-rendering:auto;color:#000000;isolation:auto;mix-blend-mode:normal;shape-rendering:auto;solid-color:#000000;image-rendering:auto" d="m93.28 555.03 5.818 5.236q0.1969 0.1772 0.3849 0.18545 0.18165 0.003 0.4573-0.16324l0.17149 0.15434-2.2636 2.5152-0.17784-0.16005q0.1429-0.27375 0.11495-0.45984-0.02223-0.19245-0.21913-0.36965l-5.818-5.236q-0.1969-0.1772-0.37855-0.17974-0.18165-0.003-0.4573 0.16324l-0.17784-0.16005 2.2636-2.5152 0.17784 0.16005q-0.14226 0.28581-0.11431 0.47191 0.0216 0.18038 0.2185 0.35758z"/>
				<path style="color-rendering:auto;color:#000000;isolation:auto;mix-blend-mode:normal;shape-rendering:auto;solid-color:#000000;image-rendering:auto" d="m96.737 549.05q1.3687-1.8254 3.2109-2.3451 2.2131-0.61553 4.2162 0.88641 1.8801 1.4097 1.9094 3.7065 0.0276 1.9004-1.3411 3.7258-1.3686 1.8254-3.2006 2.3315-2.2182 0.62236-4.1598-0.83344-1.9621-1.4712-1.9658-3.7595-0.002-1.8918 1.3308-3.7121zm1.4545 1.0799q-0.88681 1.1827-0.68668 2.4969 0.19328 1.2236 1.2666 2.0284 1.0665 0.79966 2.2953 0.64227 1.3244-0.17107 2.2164-1.3606 0.88681-1.1827 0.67985-2.502-0.18644-1.2185-1.2256-1.9976-1.128-0.8458-2.3363-0.67304-1.3091 0.19329-2.2095 1.3658z"/>
				<path style="color-rendering:auto;color:#000000;isolation:auto;mix-blend-mode:normal;shape-rendering:auto;solid-color:#000000;image-rendering:auto" d="m104.55 543.78 4.7322 2.6722q0.23066 0.13025 0.41597 0.0975 0.18951-0.0402 0.41097-0.25859l0.2009 0.11344-1.563 2.7679-0.20834-0.11764q0.0801-0.29824 0.0124-0.47383-0.0635-0.18304-0.29413-0.31329l-6.8156-3.8486q-0.23066-0.13025-0.40853-0.0933-0.17787 0.0369-0.41098 0.25859l-0.20833-0.11764 1.8067-3.1995 0.20834 0.11765q-0.10303 0.3736 0.10531 0.49124 0.17858 0.10084 0.55113-0.003l6.9555-1.9602-4.5909-2.5924q-0.23065-0.13025-0.40853-0.0933-0.18531 0.0328-0.41097 0.25859l-0.20834-0.11764 1.563-2.7679 0.20833 0.11764q-0.0768 0.30988-0.009 0.48548 0.0602 0.17139 0.29089 0.30164l6.8156 3.8486q0.23066 0.13024 0.41598 0.0975 0.17787-0.0369 0.41097-0.25859l0.2009 0.11344-1.6848 2.9837-0.2009-0.11344q0.1179-0.3652-0.0904-0.48285-0.10417-0.0588-0.2662-0.0326-0.16203 0.0263-0.67008 0.16134l-6.8559 1.9576z"/>
			</g>
		</g>
		<rect style="color-rendering:auto;color:#000000;isolation:auto;mix-blend-mode:normal;shape-rendering:auto;solid-color:#000000;image-rendering:auto" height="600" width="120" stroke="#000" y="452.36" x="0" stroke-width="4" fill="none"/>
	</g>
	<g>
		<path style="color-rendering:auto;color:#000000;isolation:auto;mix-blend-mode:normal;shape-rendering:auto;solid-color:#000000;image-rendering:auto" d="m-60.099 545.23c27.461 47.233 88.012 63.262 135.24 35.801 12.545-7.2932 22.888-16.921 30.8-28.013 21.879-30.672 25.168-72.544 5.0007-107.23" fill="none"/>
	</g>
</svg>
